<?xml version="1.0" encoding="utf-8"?>
<!-- Svg Vector Icons : http://www.onlinewebfonts.com/icon -->
<!DOCTYPE svg PUBLIC "-//W3C//DTD SVG 1.1//EN" "http://www.w3.org/Graphics/SVG/1.1/DTD/svg11.dtd">
<svg version="1.1" xmlns="http://www.w3.org/2000/svg" xmlns:xlink="http://www.w3.org/1999/xlink" x="0px" y="0px" viewBox="0 0 1000 1000" enable-background="new 0 0 1000 1000" xml:space="preserve">
<metadata> Svg Vector Icons : http://www.onlinewebfonts.com/icon </metadata>
<g><g transform="translate(0.000000,511.000000) scale(0.100000,-0.100000)"><path d="M4851.6,5002.1c-476.7-63.3-779.4-132.5-1088-247.3c-1218.6-457-2154.3-1543-2423.3-2813c-23.7-112.8-45.5-310.6-53.4-470.8c-15.8-381.8-39.6-364,468.8-369.9l383.8-5.9l718.1-965.4c395.6-530.2,718.1-969.3,718.1-973.3c0-5.9-96.9-9.9-215.6-9.9c-201.8,0-221.6-4-273-47.5l-55.4-47.5l-5.9-1798.2c-4-987.1,0-1833.8,5.9-1881.3c7.9-47.5,29.7-100.9,55.4-122.7c39.6-39.6,75.2-39.6,1905-39.6h1865.5l53.4,45.5l53.4,47.5v1875.4v1875.3l-53.4,47.5c-41.5,33.6-77.1,45.5-152.3,45.5c-53.4,0-96.9,5.9-96.9,11.9c0,5.9,316.5,447.1,704.2,979.2l704.3,967.3h280.9c275,0,282.9,2,328.4,49.5c43.5,47.5,45.5,55.4,33.6,320.5c-19.8,451-132.5,876.3-350.1,1327.4c-514.3,1066.3-1479.7,1839.7-2621.1,2100.9c-96.9,21.8-233.4,53.4-298.7,71.2C5306.6,5006.1,5000,5019.9,4851.6,5002.1z M5249.2,4663.9c261.1-23.7,371.9-71.2,544-229.5c118.7-110.8,288.8-348.2,379.8-530.2c247.3-498.5,419.4-1321.4,476.8-2288.8l11.9-193.9H5069.2H3476.7v124.6c2,512.4,142.4,1408.5,298.7,1889.2c148.4,457,304.6,739.9,532.1,965.4C4560.8,4656,4762.6,4711.3,5249.2,4663.9z M3939.6,4464.1c-9.9-13.8-43.5-65.3-77.1-114.7c-290.8-413.4-514.3-1113.7-621.2-1940.6c-37.6-284.9-81.1-777.4-81.1-921.9v-65.3h-789.3h-789.3l9.9,95c120.7,1270,941.6,2373.9,2162.2,2904C3915.9,4491.8,3961.4,4501.7,3939.6,4464.1z M6465.8,4317.7c342.2-172.1,637-387.7,927.8-678.5c589.5-591.5,937.7-1319.5,1014.8-2122.6l9.9-95h-730h-730V1568c0,366-81.1,1028.7-178,1469.8c-120.7,544-296.7,991.1-524.2,1339.2l-35.6,53.4l51.4-19.8C6299.7,4400.8,6386.7,4359.2,6465.8,4317.7z M4841.7,125.9v-979.2h-433.2h-433.2l-708.2,953.5c-391.7,522.2-718.1,963.4-726,979.2c-13.9,21.7,178,25.7,1143.4,25.7h1157.3V125.9z M7670.6,1093.2c0-5.9-316.5-447.1-704.2-979.2l-706.2-967.3h-550h-551.9v979.2v979.2h1256.2C7104.8,1105.1,7670.6,1099.1,7670.6,1093.2z M4390.7-2028.4c5.9-811.1,7.9-860.5,43.5-900.1c35.6-39.6,53.4-41.5,555.9-41.5c482.7,0,522.2,2,565.8,37.6l47.5,37.6l5.9,862.5l5.9,862.5h522.3h524.2v-1651.8v-1651.8H5000H3338.3v1651.8v1651.8h524.2h522.2L4390.7-2028.4z M5296.7-1921.6v-751.7H5000h-296.7v751.7v751.7H5000h296.7V-1921.6z"/></g></g>
</svg>